<?xml version="1.0" encoding="utf-8"?>
<!-- Generator: Adobe Illustrator 22.0.1, SVG Export Plug-In . SVG Version: 6.00 Build 0)  -->
<svg version="1.1" id="Objects" xmlns="http://www.w3.org/2000/svg" xmlns:xlink="http://www.w3.org/1999/xlink" x="0px" y="0px"
	 viewBox="0 0 393 321" style="enable-background:new 0 0 393 321;" xml:space="preserve">
<style type="text/css">
	.st0{fill:#E3F4FF;}
	.st1{fill:#7C7C7C;}
	.st2{fill:#ADDFFF;}
	.st3{fill:#D6EFFF;}
	.st4{opacity:0.5;fill:#D6EFFF;}
	.st5{fill:#2392EC;}
	.st6{opacity:0.1;}
	.st7{opacity:0.1;fill:#2392EC;}
	.st8{opacity:0.2;}
	.st9{opacity:0.1;fill:#FFFFFF;}
	.st10{fill:#33AEFF;}
	.st11{fill:#0D68BE;}
	.st12{fill:#7F7F7F;}
	.st13{fill:#8E8E8E;}
</style>
<g>
	<path class="st0" d="M115.6,259H89.4c-9.2,0-16.6,7.4-16.6,16.6c0,9.2,7.4,16.6,16.6,16.6h26.2c9.2,0,16.6-7.4,16.6-16.6
		C132.2,266.4,124.8,259,115.6,259z"/>
	<path class="st0" d="M326.3,100h-51.4c-4.1,0-7.4-3.3-7.4-7.4c0-3.8,2.8-6.9,6.5-7.3h14.5c12.9,0,23.3-10.4,23.3-23.3
		s-10.4-23.3-23.3-23.3h-133c-12.9,0-23.3,10.4-23.3,23.3s10.4,23.3,23.3,23.3h25.4c3.7,0.4,6.5,3.5,6.5,7.3c0,4.1-3.3,7.4-7.4,7.4
		H69.7C51.1,100,36,115.1,36,133.7v0c0,18.6,15.1,33.7,33.7,33.7h101.6c5.8,0.8,10.3,5.8,10.3,11.8c0,6.1-4.6,11.2-10.6,11.8h-52.5
		c-13.8,0-25.1,11.2-25.1,25.1l0,0c0,13.8,11.2,25.1,25.1,25.1h61.1c4.9,0,8.9,4,8.9,8.9s-4,8.9-8.9,8.9h-15.1
		c-9.2,0-16.6,7.4-16.6,16.6c0,9.2,7.4,16.6,16.6,16.6h147.2c9.2,0,16.6-7.4,16.6-16.6c0-9.2-7.4-16.6-16.6-16.6h-34.8
		c-4.9,0-8.9-4-8.9-8.9s4-8.9,8.9-8.9h31.6c13.8,0,25.1-11.2,25.1-25.1l0,0c0-13.8-11.2-25.1-25.1-25.1h-42.7
		c-5.9-0.7-10.6-5.7-10.6-11.8c0-6,4.5-11,10.3-11.8h60.7c18.6,0,33.7-15.1,33.7-33.7v0C360,115.1,344.9,100,326.3,100z
		 M239.7,250.1c0,4.9-4,8.9-8.9,8.9H223c-4.9,0-8.9-4-8.9-8.9s4-8.9,8.9-8.9h7.8C235.7,241.2,239.7,245.2,239.7,250.1z M221.7,92.7
		c0-3.8,2.8-6.9,6.5-7.3h12c3.7,0.4,6.5,3.5,6.5,7.3c0,4.1-3.3,7.4-7.4,7.4h-10.3C225,100,221.7,96.7,221.7,92.7z"/>
</g>
<g>
	<path class="st1" d="M322.4,130.3c-0.3,1-1.4,1.6-2.4,1.3c-1-0.3-1.6-1.4-1.3-2.4c0.3-1,1.4-1.6,2.4-1.3
		C322.1,128.2,322.7,129.3,322.4,130.3z"/>
	<path class="st2" d="M254.7,207.7l4,13.5l17-3.6l-1.7,21.2l17.6-6.4l-30.8,45.9c-6.8,10.2-20.6,12.9-30.7,6.1l0,0
		c-10.2-6.8-12.9-20.6-6.1-30.7L254.7,207.7z"/>
	<path class="st3" d="M273.9,238.7l1.7-21.2l-17,3.6l-0.8-2.7l-26.1,38.9c-4.1,6.2-2.5,14.5,3.7,18.7c6.2,4.1,14.5,2.5,18.7-3.7
		l23.5-35.1L273.9,238.7z"/>
	<g>
		<polygon class="st2" points="288.4,175.5 274.6,172.9 270,189.6 252,178.5 249.7,197 225.5,153.4 264.3,132 		"/>
		<polygon class="st3" points="252,178.5 270,189.6 274.6,172.9 277.3,173.4 256.7,136.2 233.1,149.2 251.5,182.4 		"/>
		<path class="st2" d="M263.6,133.6l-36.4,20.1c-3.8,2.1-8.5,0.7-10.6-3h0c-2.1-3.8-0.7-8.5,3-10.6l36.4-20.1
			c3.8-2.1,8.5-0.7,10.6,3l0,0C268.7,126.8,267.4,131.6,263.6,133.6z"/>
		<path class="st4" d="M261.5,129.3l-19.7,10.9c-2,1.1-4.6,0.4-5.7-1.6l0,0c-1.1-2-0.4-4.6,1.6-5.7l19.7-10.9c2-1.1,4.6-0.4,5.7,1.6
			l0,0C264.3,125.6,263.6,128.1,261.5,129.3z"/>
	</g>
	<path class="st5" d="M322.3,197.6c-5.7,0.2-12.8,3.4-12.8,3.4s4-3.4,7.9-12.8c3.9-9.4,5.7-19,1-18.2c-4.7,0.7-7.9,9.8-11,15.6
		c-5.4,10.3-10.2,13.5-10.2,13.5s1.9-3.6-0.2-6.6c-2.1-3-7.7-2.2-11.7,7.4c-2.1,5-5.7,11.7-10,17.8c-0.1,0.1-0.2,0.3-0.3,0.4
		c-0.3,0.5-0.7,0.9-1,1.4c-0.1,0.1-0.1,0.2-0.2,0.3c-0.4,0.5-0.7,1-1.1,1.4c-0.1,0.1-0.2,0.2-0.2,0.3c-0.4,0.5-0.8,1-1.1,1.4
		c-0.1,0.1-0.1,0.2-0.2,0.3c-0.4,0.5-0.8,1-1.2,1.4c0,0-0.1,0.1-0.1,0.1c-0.8,1-1.7,1.9-2.5,2.7c-1.4,1.4-2.8,2.6-4.1,3.5
		c-5.3,3.6-12.2,4-16.3,3.9l-15.2,22.6c-4.1,6.2-2.5,14.5,3.7,18.7c6.2,4.1,14.5,2.5,18.7-3.7l23.5-35.1l0,0
		c0,0,16.2-20.8,36.8-29.4c11.3-4.7,19.1-2.5,20-5.6C335.3,199.4,328.1,197.5,322.3,197.6z"/>
	<path class="st1" d="M308.8,171.9c-0.6,2-2.7,3.2-4.8,2.6c-2-0.6-3.2-2.7-2.6-4.8c0.6-2,2.7-3.2,4.8-2.6
		C308.2,167.8,309.4,169.9,308.8,171.9z"/>
	<path class="st1" d="M299.4,148.4c-0.3,1.2-1.6,1.9-2.8,1.6s-1.9-1.6-1.6-2.8c0.3-1.2,1.6-1.9,2.8-1.6
		C299,146,299.7,147.2,299.4,148.4z"/>
	<polygon class="st2" points="222.3,191.8 232.3,189.3 229.4,199.2 	"/>
	<polygon class="st2" points="307.4,237.6 309.1,227.4 317,234 	"/>
	<polygon class="st2" points="236.2,205.1 238.4,200.1 241.6,204.6 	"/>
	<path class="st6" d="M278.7,237l-18.4,27.4c-6.8,10.2-20.6,12.9-30.7,6.1c-4.1-2.8-7-6.7-8.5-11c-2.8,9.1,0.5,19.4,8.8,24.9
		c10.2,6.8,23.9,4.1,30.7-6.1l30.8-45.9L278.7,237z"/>
	<path class="st7" d="M270,189.6l-0.4-0.4c-13.8-9-22.1-26.8-29.8-42.4h0l-13.7,7.6l23.6,42.6l2.3-18.6L270,189.6z"/>
	<path class="st8" d="M296.9,213.2c0,0-17.3,12.7-26.7,25.6c-9.4,12.9-16.7,25.9-21.9,29.3c-6.1,4.1-12.5,0-12.9-5
		c-0.4-5.1,5.9-13.4,16.4-17c10.5-3.7,25.3-16.7,30.1-24c4.8-7.3,5.1-15.4,9.9-15.7c4.8-0.3,1.7,4.6,1.7,4.6s6-3.4,11.1-11.5
		c5.2-8.1,6-11.7,8.3-9.2C315.3,192.8,304.9,206.9,296.9,213.2z"/>
	<path class="st8" d="M303.2,211.3c0,0,5.9-3.4,10.7-5.5c4.8-2,10.8-1.8,11.8-3.3c1-1.5-7-1.1-13.3,2
		C306.1,207.6,303.2,211.3,303.2,211.3z"/>
	<path class="st8" d="M273.8,228.8c0,0-6.1,6.3-13.5,10c-7.3,3.8-10.5,3.9-10.1,1.5C250.7,237.7,263.7,237,273.8,228.8z"/>
	<path class="st9" d="M292.2,197.4c-0.2,0.7-0.9,1.1-1.6,0.9c-0.7-0.2-1.1-0.9-0.9-1.6s0.9-1.1,1.6-0.9
		C292,196,292.4,196.7,292.2,197.4z"/>
	<path class="st9" d="M313.9,201.4c0,0,4.6-2.3,9.9-2.4c5.3-0.1,9,0.9,8.9,2.2s-3.1-0.9-8.7-1.1
		C318.4,199.8,313.9,201.4,313.9,201.4z"/>
	<path class="st9" d="M284.3,207.7c0,0-4.4,10.1-9.7,16c-5.3,5.9-10.4,8.7-10.4,8.7s6.9-1.7,12.7-8.8
		C282.7,216.4,284.3,207.7,284.3,207.7z"/>
	<path class="st9" d="M316.7,173.4c0,0-1.7,1.4-3.9,5.9c-2.1,4.4-4.1,9.3-7.4,13.7c-3.3,4.3-5.9,6.6-5.9,6.6s4.5-2,9.5-10
		S312.7,178.8,316.7,173.4z"/>
	<path class="st9" d="M305.9,170.2c-0.2,0.8-1.1,1.3-2,1.1c-0.8-0.2-1.3-1.1-1.1-2c0.2-0.8,1.1-1.3,2-1.1S306.2,169.4,305.9,170.2z"
		/>
	<path class="st9" d="M297.9,147.4c-0.2,0.6-0.7,0.9-1.3,0.7c-0.6-0.2-0.9-0.7-0.7-1.3c0.2-0.6,0.7-0.9,1.3-0.7
		C297.7,146.3,298,146.8,297.9,147.4z"/>
	<path class="st9" d="M321.2,129.4c-0.1,0.4-0.5,0.6-1,0.5c-0.4-0.1-0.6-0.5-0.5-1c0.1-0.4,0.5-0.6,1-0.5
		C321.1,128.5,321.4,128.9,321.2,129.4z"/>
	<g>
		<polygon class="st9" points="277.6,237.4 273.9,238.7 275.6,217.6 258.6,221.2 257.9,218.5 254.7,207.7 244.2,223.2 272.3,260.9 
			291.5,232.3 277.6,237.4 		"/>
		<path class="st9" d="M235.9,235.7l-12,17.9c-0.3,0.5-0.6,1-0.9,1.5l24.1,32.5c5.3-1.2,10.3-4.3,13.5-9.3l3.2-4.8L235.9,235.7z"/>
	</g>
</g>
<g>
	<path class="st10" d="M219.1,70.5c0,0,7.8-8.2,15.3-9.5c12.2-2,14.2,9.5,9.7,12.9C239.6,77.4,230.4,68.4,219.1,70.5z"/>
	<path class="st10" d="M217.8,61.4c0,0-0.3-6.1,1.9-9.5c3.7-5.5,8.9-2.1,8.6,1C228,55.9,221,56.2,217.8,61.4z"/>
	
		<ellipse transform="matrix(0.496 -0.8683 0.8683 0.496 -62.1009 205.7634)" class="st2" cx="146.2" cy="156.4" rx="56.5" ry="56.5"/>
	
		<rect x="153.8" y="74" transform="matrix(0.8438 0.5367 -0.5367 0.8438 86.3358 -77.286)" class="st2" width="44.3" height="71.3"/>
	<path class="st2" d="M212,91.7l-35.1-22.3c-3.6-2.3-4.7-7.1-2.4-10.7l0,0c2.3-3.6,7.1-4.7,10.7-2.4l35.1,22.3
		c3.6,2.3,4.7,7.1,2.4,10.7l0,0C220.4,92.9,215.6,94,212,91.7z"/>
	<path class="st4" d="M197.3,75.3l-17.5-11.1c-1.8-1.1-2.3-3.5-1.2-5.3l0,0c1.1-1.8,3.5-2.3,5.3-1.2l17.5,11.1
		c1.8,1.1,2.3,3.5,1.2,5.3l0,0C201.5,75.9,199.1,76.4,197.3,75.3z"/>
	<path class="st3" d="M206.4,86.8l-22.7-14.4l-26.3,41.4c-18-4.7-37.8,2.4-48.4,19c-13.1,20.5-7,47.8,13.5,60.9
		c20.5,13.1,47.8,7,60.9-13.5c10.6-16.6,8.6-37.5-3.3-51.9L206.4,86.8z"/>
	<path class="st11" d="M102.1,156.3c0,0,14.2-10.2,30.7-6c15.8,4,24.9,4.5,35.5,1.4c10.6-3.1,2,22.5-25.5,21.3
		C115.4,171.8,101.9,160.3,102.1,156.3z"/>
	<path class="st10" d="M180.1,128.2c0,0-5.4-7.8-12.3-7.1c-6.9,0.6,0.6,9.1,0.6,9.1s-11.7-11.9-16-8.6c-3.3,2.6,1.5,5.8,6,11.2
		c0.2,0.2,0.3,0.4,0.5,0.6c5.8,7.5,3.9,18.3-3.7,23.9c-3.8,2.7-8.9,5-16,6.3c-10,1.9-25.6,0-37.2-7.2c0,15.1,7.7,29.9,21.9,38.2
		c19.6,11.4,45.2,5.9,58.2-12.7C194.1,164.9,192.4,143,180.1,128.2z"/>
	<path class="st10" d="M146,133.2c0,1.7-1.4,3.2-3.2,3.2c-1.7,0-3.2-1.4-3.2-3.2s1.4-3.2,3.2-3.2C144.6,130.1,146,131.5,146,133.2z"
		/>
	<path class="st10" d="M209.6,49c0,1.7-1.4,3.2-3.2,3.2s-3.2-1.4-3.2-3.2c0-1.7,1.4-3.2,3.2-3.2S209.6,47.2,209.6,49z"/>
	<path class="st10" d="M132,134.9c0,0.9-0.7,1.6-1.6,1.6s-1.6-0.7-1.6-1.6c0-0.9,0.7-1.6,1.6-1.6S132,134,132,134.9z"/>
	<path class="st10" d="M192.6,31.4c0,0.9-0.7,1.6-1.6,1.6c-0.9,0-1.6-0.7-1.6-1.6c0-0.9,0.7-1.6,1.6-1.6
		C191.8,29.8,192.6,30.5,192.6,31.4z"/>
	<g>
		<path class="st2" d="M110.4,146.9c-0.5,0-0.9-0.1-1.3-0.5c-1-0.7-1.1-2.1-0.4-3.1l6.9-8.9l-5.1-13.5c-0.4-1.1,0.1-2.4,1.3-2.8
			c1.1-0.4,2.4,0.1,2.8,1.3l5.6,14.7c0.3,0.7,0.1,1.5-0.3,2.1l-7.6,9.9C111.7,146.6,111.1,146.9,110.4,146.9z"/>
	</g>
	<g>
		<path class="st2" d="M122.4,145.2c-0.4,0-0.8-0.1-1.2-0.4l-7.1-4.7c-1-0.7-1.3-2-0.6-3c0.7-1,2-1.3,3-0.6l7.1,4.7
			c1,0.7,1.3,2,0.6,3C123.8,144.9,123.1,145.2,122.4,145.2z"/>
	</g>
	<path class="st7" d="M128.3,182.6c-22-14-31.1-40.7-23.6-64.5c-2.3,2.4-4.3,5.1-6.2,8c-16.8,26.3-9,61.3,17.4,78
		c26.3,16.8,61.3,9,78-17.4c2.7-4.3,4.8-8.9,6.3-13.5C182,192.9,151.7,197.5,128.3,182.6z"/>
	<path class="st6" d="M184.1,158.2c0,0-2.1,27.5-29.8,35.3c-27.7,7.8-41.9-10-40-17.2c1.9-7.2,12.5-6.7,29.7,3.3
		C160,188.9,181.2,171.3,184.1,158.2z"/>
	<path class="st6" d="M153.7,165.5c0,0,12.4-3.8,13.8-13.8c1.5-10-4-13.7,0-15.2C171.5,134.9,182.6,161.5,153.7,165.5z"/>
	<path class="st9" d="M186.6,152.4c0,0-0.7-7.9-4.5-16s-7.5-12-9.8-11.5c-2.3,0.5,2.2,6.4,6.3,11.2
		C182.7,141,186.6,152.4,186.6,152.4z"/>
	<path class="st9" d="M176.8,163.7c0,0-5.8,8.5-14.8,11.9c0,0-11.4,3.9-12.9-0.6c-1.6-4.9,6-4.2,12-4.7
		C167.1,169.8,176.8,163.7,176.8,163.7z"/>
	<circle class="st9" cx="156.1" cy="124.5" r="1.9"/>
	<path class="st9" d="M139.2,168.6c0,0.7-0.6,1.3-1.3,1.3s-1.3-0.6-1.3-1.3s0.6-1.3,1.3-1.3S139.2,167.9,139.2,168.6z"/>
	<path class="st9" d="M244.1,66.5c0,1.7-1.4,3-3.1,3c-1.7,0-3.1-1.4-3.1-3c0-1.7,1.4-3,3.1-3C242.8,63.4,244.1,64.8,244.1,66.5z"/>
	<path class="st9" d="M225.7,52c0,1-0.8,1.7-1.7,1.7c-1,0-1.7-0.8-1.7-1.7c0-1,0.8-1.7,1.7-1.7C224.9,50.3,225.7,51.1,225.7,52z"/>
	<circle class="st9" cx="142.4" cy="132.5" r="1.6"/>
	<path class="st9" d="M130.4,134.5c0,0.3-0.3,0.6-0.6,0.6s-0.6-0.3-0.6-0.6c0-0.3,0.3-0.6,0.6-0.6S130.4,134.2,130.4,134.5z"/>
	<g>
		<path class="st9" d="M130.2,102.2c-12,3.5-22.9,11-30.5,22l89.7,68.6c1.6-1.9,3.1-3.9,4.5-6.1c5.8-9.1,8.6-19.2,8.8-29.2
			L130.2,102.2z"/>
		<path class="st9" d="M178.8,202.5L93.1,137c-3,8.2-4,16.8-3.1,25.1l65.4,50C163.8,210.8,171.8,207.5,178.8,202.5z"/>
	</g>
	<g>
		<path class="st9" d="M220.3,78.6l-35.1-22.3c-3.6-2.3-8.4-1.2-10.7,2.4c-1.5,2.4-1.6,5.2-0.4,7.6l37.5,28.6l1.6-2.5
			c3.4,1.4,7.4,0.2,9.5-3C225,85.7,223.9,80.9,220.3,78.6z"/>
		<path class="st9" d="M192.8,124.4l11.1-17.5l-35.3-27l-11.8,18.5l37.8,28.9C194.1,126.3,193.5,125.3,192.8,124.4z"/>
	</g>
</g>
<path class="st12" d="M241.4,99.9h-1.1v-1.1c0-1.3-1-2.3-2.3-2.3c-1.3,0-2.3,1-2.3,2.3v1.1h-1.1c-1.3,0-2.3,1-2.3,2.3
	c0,1.3,1,2.3,2.3,2.3h1.1v1.1c0,1.3,1,2.3,2.3,2.3c1.3,0,2.3-1,2.3-2.3v-1.1h1.1c1.3,0,2.3-1,2.3-2.3
	C243.7,100.9,242.7,99.9,241.4,99.9z"/>
<path class="st12" d="M109,74.8h-1.1v-1.1c0-1.3-1-2.3-2.3-2.3c-1.3,0-2.3,1-2.3,2.3v1.1h-1.1c-1.3,0-2.3,1-2.3,2.3
	c0,1.3,1,2.3,2.3,2.3h1.1v1.1c0,1.3,1,2.3,2.3,2.3c1.3,0,2.3-1,2.3-2.3v-1.1h1.1c1.3,0,2.3-1,2.3-2.3
	C111.3,75.9,110.3,74.8,109,74.8z"/>
<path class="st13" d="M318.2,258.7h-1.1v-1.1c0-1.3-1-2.3-2.3-2.3c-1.3,0-2.3,1-2.3,2.3v1.1h-1.1c-1.3,0-2.3,1-2.3,2.3
	c0,1.3,1,2.3,2.3,2.3h1.1v1.1c0,1.3,1,2.3,2.3,2.3c1.3,0,2.3-1,2.3-2.3v-1.1h1.1c1.3,0,2.3-1,2.3-2.3
	C320.5,259.7,319.5,258.7,318.2,258.7z"/>
<path class="st12" d="M105.5,227.5h-1.1v-1.1c0-1.3-1-2.3-2.3-2.3s-2.3,1-2.3,2.3v1.1h-1.1c-1.3,0-2.3,1-2.3,2.3s1,2.3,2.3,2.3h1.1
	v1.1c0,1.3,1,2.3,2.3,2.3s2.3-1,2.3-2.3V232h1.1c1.3,0,2.3-1,2.3-2.3S106.7,227.5,105.5,227.5z"/>
<path class="st2" d="M145.2,74.8c0,1.3-1.1,2.4-2.4,2.4c-1.3,0-2.4-1.1-2.4-2.4c0-1.3,1.1-2.4,2.4-2.4
	C144.2,72.4,145.2,73.5,145.2,74.8z"/>
<circle class="st2" cx="176.8" cy="266.6" r="5.2"/>
<path class="st2" d="M270,108.3c0,1.8-1.5,3.3-3.3,3.3c-1.8,0-3.3-1.5-3.3-3.3c0-1.8,1.5-3.3,3.3-3.3C268.5,105,270,106.5,270,108.3
	z"/>
<circle class="st2" cx="64.8" cy="138.7" r="3.3"/>
<circle class="st2" cx="287.3" cy="283" r="3.4"/>
<g>
	<g>
		<path class="st12" d="M209.4,207.8c0.3-0.4,0.4-0.8,0.5-1.3c0.2-1.6-1-3.1-2.6-3.3l-8.3-0.9c-1.6-0.2-3.1,1-3.3,2.6
			c-0.2,1.6,1,3.1,2.6,3.3l8.3,0.9C207.7,209.2,208.7,208.7,209.4,207.8z"/>
	</g>
	<g>
		<path class="st12" d="M212.1,219.7c0.5-0.7,0.7-1.7,0.4-2.6c-0.5-1.6-2.2-2.4-3.8-1.9l-16.4,5.5c-1.6,0.5-2.4,2.2-1.9,3.8
			c0.5,1.6,2.2,2.4,3.8,1.9l16.4-5.5C211.2,220.6,211.7,220.2,212.1,219.7z"/>
	</g>
	<g>
		<path class="st12" d="M218.1,228.8c0.8-1.2,0.6-2.9-0.5-3.9c-1.2-1.1-3.1-1-4.2,0.2l-7,7.8c-1.1,1.2-1,3.1,0.2,4.2s3.1,1,4.2-0.2
			l7-7.8C217.9,229,218,228.9,218.1,228.8z"/>
	</g>
</g>
</svg>
